<svg xmlns="http://www.w3.org/2000/svg" width="96" height="96" viewBox="0 0 500 500" version="1.2" baseProfile="tiny-ps">
  <title>Dwellable</title>
  <desc>Dwellable logo</desc>
  <g>
    <path fill="#3d6731" d="M97.2 408.7c84.5 55.8 221.1 55.8 305.6 0s84.5-146.3 0-202.1-221.3-55.8-305.6 0-84.5 146.3 0 202.1"/>
    <path fill="#c54140" d="M256.5 380.5V393l151.1-76.7v-12.4z"/>
    <path fill="#e0e1e0" d="m291.3 367.1 116.3-59V160l-45.7-21.3-70.6 88.8z"/>
    <path fill="#273339" d="m375.3 192.5-10.9 5.5v19.6l11.1-5.5z"/>
    <path fill="#384850" d="m374.5 193.9-9.4 4.5v17.9l9.4-4.6z"/>
    <path fill="#273339" d="m375.5 207.5-11.1 5.6v-1l11.1-5.6z"/>
    <path fill="#fafbfc" d="M127.3 279.7v-82.8l164 82.8v83.1z"/>
    <path fill="#384850" d="m276.9 336.9-36.8-18.6v-45.8l36.8 18.8z"/>
    <path fill="#c4c43f" d="m275.8 335.1-34.7-17.5v-43.4l34.7 17.6z"/>
    <path fill="#465b65" d="m192.4 54.5-69.3 87.7 169.6 86 69.5-87.8z"/>
    <path fill="#465b65" d="m192.4 49.4-69.3 87.9 169.6 85.8 69.5-87.7z"/>
    <path fill="#fafbfc" d="m127.3 196.9 164 82.8v-52.2l-40.9-20.8-41.4-54.3-41.3 12.6-40.4-20.4z"/>
    <path fill="#c4c43f" d="m202.9 284.5 17.2 8.8-.2-28.1-17-8.6z"/>
    <path fill="#c54140" d="m199.1 351.4 57.4 29.1V393l-57.4-29.1z"/>
    <path fill="#c54140" d="m149.9 326.5-53.2-27V312l53.2 27.1z"/>
    <path fill="#f1f0f0" d="m127.3 279.7-34.8 17.7 164 83.1 34.8-17.7z"/>
  </g>
</svg>
